<mxfile host="app.diagrams.net" modified="2023-10-20T03:31:03.365Z" agent="Mozilla/5.0 (Windows NT 10.0; Win64; x64) AppleWebKit/537.36 (KHTML, like Gecko) Chrome/118.0.0.0 Safari/537.36 Edg/118.0.2088.46" etag="wGKB3zb6k35dZD5XuXe_" version="22.0.5" type="github">
  <diagram name="第 1 页" id="TaL1oua16KJfTjlPZrS8">
    <mxGraphModel dx="1492" dy="871" grid="1" gridSize="10" guides="1" tooltips="1" connect="1" arrows="1" fold="1" page="1" pageScale="1" pageWidth="827" pageHeight="1169" math="0" shadow="0">
      <root>
        <mxCell id="0" />
        <mxCell id="1" parent="0" />
        <mxCell id="jUduSlH1h3Vk4Ds-8Wch-1" value="" style="rounded=1;whiteSpace=wrap;html=1;fillStyle=hatch;fillColor=#9933FF;sketch=1;curveFitting=1;jiggle=2;" parent="1" vertex="1">
          <mxGeometry x="140" y="200" width="120" height="60" as="geometry" />
        </mxCell>
        <mxCell id="UHHymm-M6Va6eTwd9u1b-1" value="" style="rounded=1;whiteSpace=wrap;html=1;" vertex="1" parent="1">
          <mxGeometry x="80" y="340" width="120" height="60" as="geometry" />
        </mxCell>
        <mxCell id="UHHymm-M6Va6eTwd9u1b-3" value="" style="rounded=1;whiteSpace=wrap;html=1;fillStyle=hatch;fillColor=#9933FF;sketch=1;curveFitting=1;jiggle=2;" vertex="1" parent="1">
          <mxGeometry x="320" y="210" width="120" height="60" as="geometry" />
        </mxCell>
      </root>
    </mxGraphModel>
  </diagram>
</mxfile>
